<?xml version="1.0" encoding="UTF-8"?>
<svg xmlns="http://www.w3.org/2000/svg" width="160" height="205" viewBox="0 0 160 205" fill="none">
  <path d="M86.4004 162.1H92.0704V164.5H86.4004V162.1ZM111.23 164.47V174.76H108.52V152.77H119.88V155.17H111.23V162.07" fill="#4F959E"></path>
  <path d="M57.7891 162.1H63.4491V164.5H57.7891V162.1ZM84.9491 164.47V174.76H82.2391V152.77H93.5991V155.17H84.9491V162.07" fill="#4F959E"></path>
  <path d="M147.461 171.31L147.271 167.55C147.151 165.67 146.071 164.1 144.161 163.89V163.83C146.711 163.21 147.551 160.69 147.551 158.29C147.551 154.81 145.361 152.78 141.921 152.78H134.811V155H140.751C143.271 155 144.721 156.36 144.721 158.51C144.721 162.76 141.791 162.76 140.191 162.76H137.511V156.39H134.801V174.77H137.511V164.98H141.171C142.551 164.98 144.221 165.17 144.431 168.18L144.611 171.6C144.671 172.68 144.891 174.31 145.351 174.77H148.611C147.961 174.37 147.561 173.75 147.441 171.32" fill="#4F959E"></path>
  <path d="M112.679 162.1H118.349V164.5H112.679V162.1ZM109.949 172.36H119.889V174.76H109.949V172.36Z" fill="#4F959E"></path>
  <path d="M36.8516 38.6001C35.4716 38.6001 34.3516 39.7101 34.3516 41.1001V130.25H44.6416V51.3801C44.6416 50.0101 45.7616 48.8801 47.1416 48.8801H96.8516L73.1116 114.09H81.5316C83.0616 114.09 84.4216 113.14 84.9316 111.72L111.542 38.6001H36.8516Z" fill="#4F959E"></path>
  <path d="M19.88 155.18H22.72V152.77H10.56V155.17H19.89L19.88 155.18ZM21.97 156.57H19.09L10 172.48V174.76H22.84V172.36H12.84L21.97 156.57ZM64.9 162.07V155.17H56.25V152.77H67.61V174.76H64.9V164.47" fill="#4F959E"></path>
  <path d="M37.6602 152.77H40.3702V174.75H37.6602V152.77ZM116.6 38.6001H115.35V118.3C115.35 119.67 114.23 120.8 112.85 120.8H63.1402L86.8802 55.5901H78.4702C76.9402 55.5901 75.5802 56.5401 75.0602 57.9701L48.7502 130.25H125.01C125.4 129.81 125.63 129.23 125.63 128.6V38.6001H116.59H116.6Z" fill="#4F959E"></path>
</svg>
